# xmcd CD database file
#
# Track frame offsets:
#	150
#	26570
#	51689
#	76507
#	102737
#	130357
#	153247
#	173344
#	199762
#	225389
#
# Disc length: 3317 seconds
#
# Revision: 0
# Processed by: cddbd v1.5.2PL0 Copyright (c) Steve Scherf et al.
# Submitted via: CDex 1.70beta2
#
DISCID=770cf30a
DTITLE="Philly"Joe Jones - Philly Joe Jones Dameronia, feat. Johnny Griffin
DYEAR=2009
DGENRE=Jazz
TTITLE0=Look, Stop And Listen
TTITLE1=If You Could See Me Now
TTITLE2=Choose Now
TTITLE3=Focus
TTITLE4=Killer Joe
TTITLE5=Dial B For Beauty
TTITLE6=Our Delight
TTITLE7=Theme Of No Repeat
TTITLE8=If You Could See Me Now (1st Take)
TTITLE9=Look, Stop And Listen (1st Take)
EXTD=YEAR: 2009
EXTT0=
EXTT1=
EXTT2=
EXTT3=
EXTT4=
EXTT5=
EXTT6=
EXTT7=
EXTT8=
EXTT9=
PLAYORDER=
